<svg id="Laag_1" data-name="Laag 1" xmlns="http://www.w3.org/2000/svg" viewBox="0 0 3753.32 1249.15"><defs><style>.cls-1{fill:#ae86bc;}.cls-2{fill:#a276b2;}.cls-3{fill:#905aa1;}</style></defs><path class="cls-1" d="M-37,206.76,3628.35,213V1215.76c-1007.34,51-1449.74-68.09-1667-188.6-330.63-183.43-176.58-390.79-536.15-513.93C973.32,358.47,288,630.6,11.74,494.37-126,426.46-87.65,299.82-37,206.76Z" transform="translate(83.31 21.29)"/><path class="cls-2" d="M-10.81,93.4l3665.35,6.19V1102.4c-1007.34,51-1449.74-68.09-1666.95-188.6C1657,730.37,1811,523,1451.43,399.87,999.51,245.11,314.18,517.24,37.93,381-99.77,313.1-61.46,186.46-10.81,93.4Z" transform="translate(83.31 21.29)"/><path class="cls-3" d="M4.66-21.29,3670-15.1V987.7c-1007.33,51-1449.73-68.08-1666.95-188.59-330.63-183.44-176.59-390.8-536.15-513.93C1015,130.41,329.64,402.55,53.4,266.32-84.3,198.41-46,71.76,4.66-21.29Z" transform="translate(83.31 21.29)"/></svg>